<?xml version="1.0" encoding="utf-8"?>
<!-- Generator: Adobe Illustrator 26.0.0, SVG Export Plug-In . SVG Version: 6.00 Build 0)  -->
<svg version="1.1" id="Layer_1" xmlns="http://www.w3.org/2000/svg" xmlns:xlink="http://www.w3.org/1999/xlink" x="0px" y="0px"
	 viewBox="0 0 32 32" style="enable-background:new 0 0 32 32;" xml:space="preserve">
<style type="text/css">
	.st0{fill:#93278F;stroke:#93278F;stroke-miterlimit:10;}
	.st1{fill:#662D91;stroke:#662D91;stroke-miterlimit:10;}
</style>
<path class="st0" d="M5.18,5.89c2.83,0.89,5.27,0.04,6.38-0.36c1.93-0.7,3.29-1.8,4.15-2.64c0.38,0.93,0.76,1.85,1.14,2.78
	c-0.9,1.37-1.79,2.73-2.69,4.1c-0.89,1.16-2.67,3.81-3.14,7.65c-0.39,3.14,0.27,5.67,0.73,7.02c-1.05,2-2.08,2.61-2.92,2.73
	c0,0-0.56,0.08-3.46-0.82c0.91-6.8,0.77-8.88,0.77-8.88c-0.15-2.42-0.32-4.65-1.96-6.56c-1-1.17-2.19-1.8-3.01-2.14
	C1.31,7.07,1.44,5.38,1.58,3.7C2.21,4.32,3.4,5.33,5.18,5.89z"/>
<path class="st1" d="M15.57,8.94c0.35,1.61,0.65,3.82,0.41,6.42c-0.41,4.56-2.24,7.92-3.38,9.68c1.74,0.03,3.49,0.05,5.23,0.08
	c0.34-1.03,0.76-2.13,1.29-3.29c0.71-1.57,1.46-2.94,2.2-4.12c0.45,0.04,0.9,0.07,1.36,0.11c0.18,0.71,0.36,1.43,0.55,2.14
	c-0.15,1.64-0.3,3.28-0.46,4.92c1.28,0.08,2.55,0.15,3.83,0.23c0.35-0.97,0.79-2.34,1.14-4.01c0.41-1.96,1.1-5.35,0.46-9.57
	c-0.27-1.8-0.91-4.54-2.55-7.61c-1.55,0.03-3.1,0.06-4.64,0.08c0.42,0.27,1.96,1.31,2.59,3.38c0.52,1.72,0.13,3.16-0.05,3.69
	c-0.84,0.12-1.67,0.24-2.51,0.36c0.07-0.67,0.17-2.51-0.91-4.42c-0.82-1.43-1.92-2.23-2.51-2.6C17.57,5,17.43,5.9,16.98,6.89
	C16.54,7.85,15.97,8.53,15.57,8.94z"/>
</svg>
